FILE "Lunar - The Silver Star (1993)(Game Arts - Working Designs)(US).img" BINARY
  TRACK 01 MODE1/2352
    INDEX 01 00:00:00
  TRACK 02 AUDIO
    PREGAP 00:02:00
    INDEX 01 01:12:22
  TRACK 03 AUDIO
    INDEX 00 01:24:29
    INDEX 01 01:26:29
  TRACK 04 AUDIO
    INDEX 00 03:10:11
    INDEX 01 03:12:13
  TRACK 05 AUDIO
    INDEX 00 04:22:12
    INDEX 01 04:24:12
  TRACK 06 AUDIO
    INDEX 00 05:47:17
    INDEX 01 05:49:17
  TRACK 07 AUDIO
    INDEX 00 07:15:09
    INDEX 01 07:17:09
  TRACK 08 AUDIO
    INDEX 00 08:33:21
    INDEX 01 08:35:21
  TRACK 09 AUDIO
    INDEX 00 09:52:33
    INDEX 01 09:54:35
  TRACK 10 AUDIO
    INDEX 00 11:05:36
    INDEX 01 11:07:36
  TRACK 11 AUDIO
    INDEX 00 12:23:56
    INDEX 01 12:25:56
  TRACK 12 AUDIO
    INDEX 00 13:52:54
    INDEX 01 13:54:54
  TRACK 13 AUDIO
    INDEX 00 15:20:67
    INDEX 01 15:22:67
  TRACK 14 AUDIO
    INDEX 00 16:46:46
    INDEX 01 16:48:48
  TRACK 15 AUDIO
    INDEX 00 17:53:17
    INDEX 01 17:55:17
  TRACK 16 AUDIO
    INDEX 00 18:59:44
    INDEX 01 19:01:44
  TRACK 17 AUDIO
    INDEX 00 20:15:01
    INDEX 01 20:17:03
  TRACK 18 AUDIO
    INDEX 00 21:04:46
    INDEX 01 21:06:46
  TRACK 19 AUDIO
    INDEX 00 22:23:13
    INDEX 01 22:25:15
  TRACK 20 AUDIO
    INDEX 00 23:05:03
    INDEX 01 23:07:05
  TRACK 21 AUDIO
    INDEX 00 23:48:41
    INDEX 01 23:50:41
  TRACK 22 AUDIO
    INDEX 00 25:13:17
    INDEX 01 25:15:17
  TRACK 23 AUDIO
    INDEX 00 26:22:29
    INDEX 01 26:24:29
  TRACK 24 AUDIO
    INDEX 00 27:05:53
    INDEX 01 27:07:55
  TRACK 25 AUDIO
    INDEX 00 27:25:17
    INDEX 01 27:27:17
  TRACK 26 AUDIO
    INDEX 00 27:46:38
    INDEX 01 27:48:40
  TRACK 27 AUDIO
    INDEX 00 28:09:63
    INDEX 01 28:11:65
  TRACK 28 AUDIO
    INDEX 00 28:33:14
    INDEX 01 28:35:14
  TRACK 29 AUDIO
    INDEX 00 30:01:13
    INDEX 01 30:03:15
  TRACK 30 AUDIO
    INDEX 00 31:02:16
    INDEX 01 31:04:16
  TRACK 31 AUDIO
    INDEX 00 32:11:46
    INDEX 01 32:13:48
  TRACK 32 AUDIO
    INDEX 00 32:32:21
    INDEX 01 32:34:21
  TRACK 33 AUDIO
    INDEX 00 32:56:48
    INDEX 01 32:58:50
  TRACK 34 AUDIO
    INDEX 00 33:27:51
    INDEX 01 33:29:51
  TRACK 35 AUDIO
    INDEX 00 33:45:47
    INDEX 01 33:47:47
  TRACK 36 AUDIO
    INDEX 00 34:06:41
    INDEX 01 34:08:41
  TRACK 37 AUDIO
    INDEX 00 34:28:04
    INDEX 01 34:30:04
  TRACK 38 AUDIO
    INDEX 00 36:04:03
    INDEX 01 36:06:05
  TRACK 39 AUDIO
    INDEX 00 37:09:56
    INDEX 01 37:11:56
  TRACK 40 AUDIO
    INDEX 00 37:31:62
    INDEX 01 37:33:62
  TRACK 41 AUDIO
    INDEX 00 38:05:61
    INDEX 01 38:07:63
  TRACK 42 AUDIO
    INDEX 00 38:30:61
    INDEX 01 38:32:61
  TRACK 43 AUDIO
    INDEX 00 39:22:62
    INDEX 01 39:24:62
  TRACK 44 AUDIO
    INDEX 00 39:47:37
    INDEX 01 39:49:37
  TRACK 45 AUDIO
    INDEX 00 40:19:36
    INDEX 01 40:21:38
  TRACK 46 AUDIO
    INDEX 00 40:46:39
    INDEX 01 40:48:39
  TRACK 47 AUDIO
    INDEX 00 41:09:38
    INDEX 01 41:11:40
  TRACK 48 AUDIO
    INDEX 00 42:14:52
    INDEX 01 42:16:52
  TRACK 49 AUDIO
    INDEX 00 45:26:51
    INDEX 01 45:28:53
  TRACK 50 AUDIO
    INDEX 00 45:44:37
    INDEX 01 45:46:37
  TRACK 51 AUDIO
    INDEX 00 46:12:69
    INDEX 01 46:14:69
  TRACK 52 AUDIO
    INDEX 00 46:22:04
    INDEX 01 46:24:04
